<svg width="17" height="15" viewBox="0 0 17 15" fill="none" xmlns="http://www.w3.org/2000/svg">
<path d="M16.7684 3.04977C16.2062 1.22653 14.6421 0.000759829 12.8773 0.000759829C11.7529 0.000759829 10.6189 0.446733 9.76523 1.22509C9.01639 1.90729 8.54789 3.05364 8.52207 3.11724C8.51469 3.13844 8.50731 3.15813 8.49993 3.17479C8.49108 3.15434 8.48149 3.13011 8.4719 3.1021C8.45198 3.05364 7.98349 1.90729 7.23463 1.22433C6.38102 0.445973 5.24712 0 4.12258 0C2.35705 0 0.794452 1.22509 0.232178 3.04901C-0.76235 6.27537 1.47607 10.2443 6.2185 13.6659C6.86036 14.1292 7.98402 14.8417 8.03198 14.8728C8.16109 14.9546 8.32709 15 8.49974 15C8.67238 15 8.83839 14.9546 8.96824 14.8728C9.01619 14.8425 10.1391 14.1293 10.781 13.6659C15.5241 10.2451 17.7619 6.27595 16.7681 3.04959L16.7684 3.04977Z" fill="#071232"/>
</svg>
