<svg width="16" height="16" viewBox="0 0 16 16" fill="none" xmlns="http://www.w3.org/2000/svg">
<g clip-path="url(#clip0_1_196)">
<path d="M10.6667 9.33317H11.6667V11.2132L13.2934 12.1532L12.7934 13.0198L10.6667 11.7932V9.33317ZM16 11.3332C16 12.5708 15.5084 13.7578 14.6332 14.633C13.758 15.5082 12.5711 15.9998 11.3334 15.9998C9.47337 15.9998 7.86671 14.9065 7.11337 13.3332H2.66671C2.31309 13.3332 1.97395 13.1927 1.7239 12.9426C1.47385 12.6926 1.33337 12.3535 1.33337 11.9998V3.99984C1.33337 3.25984 1.92671 2.6665 2.66671 2.6665H13.3334C13.687 2.6665 14.0261 2.80698 14.2762 3.05703C14.5262 3.30708 14.6667 3.64622 14.6667 3.99984V8.0665C15.4934 8.9065 16 10.0598 16 11.3332ZM6.66671 11.3332C6.66671 10.0265 7.20671 8.8465 8.06671 7.99984H2.66671V11.9998H6.71337C6.66671 11.7798 6.66671 11.5598 6.66671 11.3332ZM11.3334 7.99984C10.4493 7.99984 9.60147 8.35103 8.97635 8.97615C8.35123 9.60127 8.00004 10.4491 8.00004 11.3332C8.00004 12.2172 8.35123 13.0651 8.97635 13.6902C9.60147 14.3153 10.4493 14.6665 11.3334 14.6665C12.2174 14.6665 13.0653 14.3153 13.6904 13.6902C14.3155 13.0651 14.6667 12.2172 14.6667 11.3332C14.6667 10.4491 14.3155 9.60127 13.6904 8.97615C13.0653 8.35103 12.2174 7.99984 11.3334 7.99984ZM13.3334 5.33317V3.99984H2.66671V5.33317H13.3334Z" fill="#FF364A"/>
</g>
<defs>
<clipPath id="clip0_1_196">
<rect width="16" height="16" fill="white"/>
</clipPath>
</defs>
</svg>
