<svg width="17" height="14" viewBox="0 0 17 14" fill="none" xmlns="http://www.w3.org/2000/svg">
<path d="M8.49953 6.99966C10.0637 6.99966 11.3327 5.84843 11.3327 4.42922C11.3327 3.33542 9.64756 1.12867 8.87729 0.174325C8.68841 -0.0581083 8.31065 -0.0581083 8.12177 0.174325C7.3515 1.12867 5.66635 3.33542 5.66635 4.42922C5.66635 5.84843 6.93538 6.99966 8.49953 6.99966ZM16.6833 8.97124C16.335 8.67865 15.792 8.69779 15.4261 8.97124L12.6991 10.992C12.3656 11.2409 11.9495 11.3749 11.5186 11.3749H8.02734C7.76763 11.3749 7.55514 11.178 7.55514 10.9374C7.55514 10.6967 7.76763 10.4998 8.02734 10.4998H10.3381C10.8074 10.4998 11.2442 10.2018 11.3209 9.77245C11.4183 9.22555 10.9638 8.74974 10.3883 8.74974H5.66635C4.86952 8.74974 4.09925 9.00405 3.4795 9.46892L2.10718 10.4998H0.472196C0.212488 10.4998 0 10.6967 0 10.9374V13.5625C0 13.8031 0.212488 14 0.472196 14H11.0022C11.4301 14 11.8462 13.866 12.1827 13.6172L16.6449 10.3084C17.0935 9.97754 17.1289 9.34313 16.6833 8.97124Z" fill="white"/>
</svg>
