<svg width="21" height="26" viewBox="0 0 21 26" fill="none" xmlns="http://www.w3.org/2000/svg">
<path d="M20.1964 11.1429H12.0714C11.3326 11.1429 10.6241 10.8494 10.1016 10.3269C9.57921 9.80452 9.28572 9.09596 9.28572 8.35714V0.232143C9.28572 0.170575 9.26126 0.111528 9.21772 0.0679931C9.17419 0.0244579 9.11514 0 9.05357 0H3.71429C2.7292 0 1.78445 0.391325 1.08789 1.08789C0.391325 1.78445 0 2.7292 0 3.71429V22.2857C0 23.2708 0.391325 24.2155 1.08789 24.9121C1.78445 25.6087 2.7292 26 3.71429 26H16.7143C17.6994 26 18.6441 25.6087 19.3407 24.9121C20.0372 24.2155 20.4286 23.2708 20.4286 22.2857V11.375C20.4286 11.3134 20.4041 11.2544 20.3606 11.2108C20.317 11.1673 20.258 11.1429 20.1964 11.1429Z" fill="#BCBCBC"/>
<path d="M19.6868 9.08776L11.3407 0.741639C11.3245 0.725505 11.3039 0.714528 11.2814 0.71009C11.259 0.705651 11.2357 0.707949 11.2145 0.716694C11.1934 0.725439 11.1753 0.740241 11.1625 0.759239C11.1498 0.778238 11.1429 0.800584 11.1428 0.82347V8.35709C11.1428 8.60336 11.2407 8.83954 11.4148 9.01369C11.5889 9.18783 11.8251 9.28566 12.0714 9.28566H19.605C19.6279 9.28556 19.6502 9.2787 19.6692 9.26594C19.6882 9.25318 19.703 9.23509 19.7118 9.21394C19.7205 9.19279 19.7228 9.16953 19.7184 9.14708C19.714 9.12463 19.703 9.10399 19.6868 9.08776Z" fill="#BCBCBC"/>
</svg>
