<svg width="20" height="17" viewBox="0 0 20 17" fill="none" xmlns="http://www.w3.org/2000/svg">
<path d="M0.909027 6.76485C0.758038 6.76485 0.604762 6.72599 0.462923 6.64826C0.0259702 6.40135 -0.129593 5.8481 0.11748 5.40915C0.268469 5.13938 0.433184 4.87647 0.60705 4.6227C0.890727 4.20891 1.45579 4.10374 1.87216 4.38723C2.28623 4.67071 2.39147 5.23769 2.10779 5.65148C1.96366 5.86181 1.8264 6.08128 1.70058 6.30533C1.53586 6.59796 1.22702 6.76485 0.909027 6.76485Z" fill="#616471"/>
<path d="M19.0917 11.5269C18.5884 11.5269 18.1812 11.12 18.1812 10.617C18.1812 5.76573 14.2303 1.81751 9.37582 1.81751C7.50675 1.81751 5.72234 2.39363 4.21473 3.48642C3.80981 3.78133 3.24017 3.68989 2.94506 3.28295C2.64994 2.87601 2.74145 2.30904 3.14866 2.01412C4.96968 0.695 7.12242 0 9.37582 0C15.2346 0 20 4.7621 20 10.617C20.0022 11.12 19.595 11.5269 19.0917 11.5269Z" fill="#616471"/>
<path d="M2.67058 14.4556C2.16728 14.4556 1.76007 14.0486 1.76007 13.5457V10.5394C1.76007 7.6222 3.38663 5.00453 6.00607 3.71284C6.45675 3.49108 7.00122 3.67397 7.22313 4.12435C7.44504 4.57473 7.26202 5.11883 6.81134 5.34059C4.81646 6.32594 3.5788 8.31719 3.5788 10.5394V13.5457C3.58109 14.0486 3.17388 14.4556 2.67058 14.4556Z" fill="#616471"/>
<path d="M16.0857 16.6365C15.5824 16.6365 15.1752 16.2295 15.1752 15.7266V10.5392C15.1752 7.34545 12.574 4.74607 9.3781 4.74607C8.8748 4.74607 8.46759 4.33913 8.46759 3.83617C8.46759 3.33321 8.8748 2.92627 9.3781 2.92627C13.5783 2.92627 16.9939 6.34182 16.9939 10.5369V15.7243C16.9939 16.2295 16.5867 16.6365 16.0857 16.6365Z" fill="#616471"/>
<path d="M10.5632 17C10.0599 17 9.65272 16.5931 9.65272 16.0901V11.328C9.65272 11.1771 9.52918 11.0514 9.37591 11.0514C9.22263 11.0514 9.09909 11.1749 9.09909 11.328V12.7523C9.09909 13.2553 8.69188 13.6622 8.18859 13.6622C7.68529 13.6622 7.27808 13.2553 7.27808 12.7523V11.328C7.27808 10.1735 8.21833 9.23389 9.37362 9.23389C10.5289 9.23389 11.4692 10.1735 11.4692 11.328V16.0901C11.4737 16.5931 11.0665 17 10.5632 17Z" fill="#616471"/>
<path d="M5.54161 16.2729C5.03832 16.2729 4.6311 15.866 4.6311 15.363V10.7518C4.6311 8.13639 6.75867 6.01025 9.37582 6.01025C10.9818 6.01025 12.4665 6.8127 13.3473 8.15697C13.6218 8.57763 13.5051 9.14003 13.0842 9.41437C12.6633 9.68871 12.1005 9.57211 11.826 9.15146C11.2815 8.32157 10.3664 7.82776 9.37582 7.82776C7.76298 7.82776 6.44983 9.14003 6.44983 10.7518V15.363C6.45212 15.866 6.04491 16.2729 5.54161 16.2729Z" fill="#616471"/>
<path d="M13.2146 15.7884C12.7113 15.7884 12.3041 15.3815 12.3041 14.8785V11.1155C12.3041 10.6125 12.7113 10.2056 13.2146 10.2056C13.7179 10.2056 14.1252 10.6125 14.1252 11.1155V14.8785C14.1229 15.3815 13.7157 15.7884 13.2146 15.7884Z" fill="#616471"/>
</svg>
