<svg width="12" height="15" viewBox="0 0 12 15" fill="none" xmlns="http://www.w3.org/2000/svg">
<path d="M11.5385 12.1156L10.7227 11.2998L9.23083 12.7918V8.07715H8.07698V12.7918L6.58506 11.2998L5.76929 12.1156L8.6539 15.0002L11.5385 12.1156Z" fill="#FFC900"/>
<path d="M1.15385 13.8462V3.46154H8.07692V6.34615H9.23077V1.15385C9.23046 0.847921 9.1088 0.554613 8.89248 0.338291C8.67616 0.121969 8.38285 0.000305467 8.07692 0H1.15385C0.847921 0.000305467 0.554613 0.121969 0.338291 0.338291C0.121969 0.554613 0.000305467 0.847921 0 1.15385V13.8462C0.000305467 14.1521 0.121969 14.4454 0.338291 14.6617C0.554613 14.878 0.847921 14.9997 1.15385 15H4.61538V13.8462H1.15385ZM1.15385 1.15385H8.07692V2.30769H1.15385V1.15385Z" fill="#FFC900"/>
</svg>
