<svg width="16" height="16" viewBox="0 0 16 16" fill="none" xmlns="http://www.w3.org/2000/svg">
<path fill-rule="evenodd" clip-rule="evenodd" d="M14 5.5C14.3344 6.30187 14.515 6.36313 15.125 6.5C15.8231 6.65626 16 7.14875 16 7.5V8.49999C16 8.85124 15.8231 9.34374 15.125 9.49999C14.515 9.63687 14.3344 9.69812 14 10.5C13.6875 11.25 13.7644 11.4487 14.0988 11.9769C14.4812 12.5819 14.2588 13.0544 14.01 13.3031L13.3031 14.01C13.0544 14.2594 12.5812 14.4812 11.9775 14.0987C11.4487 13.7644 11.2737 13.6875 10.5 14C9.75062 14.3031 9.63687 14.515 9.49999 15.125C9.34312 15.8231 8.85124 16 8.5 16H7.5C7.14875 16 6.65625 15.8231 6.5 15.125C6.36312 14.515 6.24938 14.3031 5.5 14C4.72625 13.6875 4.55125 13.7644 4.0225 14.0994C3.41812 14.4819 2.94563 14.2594 2.69687 14.0106L1.99 13.3037C1.74125 13.055 1.51813 12.5812 1.90125 11.9775C2.23563 11.4487 2.31249 11.25 2 10.5C1.66563 9.69812 1.485 9.63687 0.875006 9.49999C0.17688 9.34374 0 8.85124 0 8.49999V7.5C0 7.14875 0.17688 6.65625 0.875006 6.5C1.48499 6.36312 1.66563 6.30187 2 5.5C2.31249 4.75 2.23561 4.55125 1.90125 4.0225C1.51875 3.41874 1.74124 2.94562 1.98937 2.69687L2.69687 1.98937C2.94562 1.74125 3.41876 1.51875 4.0225 1.90125C4.55125 2.23563 4.72626 2.31249 5.5 2C6.24938 1.6975 6.36312 1.485 6.5 0.875006C6.65626 0.17688 7.14875 0 7.5 0H8.49999C8.85124 0 9.34312 0.17688 9.49999 0.875006C9.63687 1.48499 9.75062 1.6975 10.5 2C11.2737 2.31249 11.4487 2.23563 11.9775 1.90062C12.5819 1.51812 13.0544 1.74062 13.3031 1.98937L14.01 2.69625C14.2587 2.945 14.4819 3.41876 14.0987 4.0225C13.7644 4.55125 13.6875 4.75001 14 5.5ZM5.49999 7.99998C5.49999 9.3806 6.61936 10.5 7.99998 10.5C9.3806 10.5 10.5 9.3806 10.5 7.99998C10.5 6.61936 9.3806 5.49999 7.99998 5.49999C6.61936 5.49999 5.49999 6.61936 5.49999 7.99998Z" fill="#071232"/>
</svg>
