<svg width="15" height="11" viewBox="0 0 15 11" fill="none" xmlns="http://www.w3.org/2000/svg">
<path d="M14.8807 3.01714C10.7283 -1.00645 4.27006 -1.00498 0.119277 3.01714C-0.0368168 3.16839 -0.0398637 3.42449 0.111074 3.58138L0.913574 4.41547C1.05748 4.56525 1.28904 4.56844 1.43857 4.4248C4.85858 1.14248 10.1409 1.14174 13.5616 4.4248C13.7112 4.56844 13.9427 4.565 14.0866 4.41547L14.8891 3.58138C15.0398 3.42449 15.0368 3.16839 14.8807 3.01714ZM7.49998 7.85714C6.67147 7.85714 5.99998 8.5606 5.99998 9.42857C5.99998 10.2965 6.67147 11 7.49998 11C8.3285 11 8.99998 10.2965 8.99998 9.42857C8.99998 8.5606 8.3285 7.85714 7.49998 7.85714ZM12.2501 5.80471C9.54866 3.30196 5.44826 3.30467 2.7499 5.80471C2.58818 5.95449 2.58303 6.21451 2.73654 6.37312L3.54373 7.2077C3.68436 7.35306 3.91076 7.36288 4.06053 7.22734C6.02811 5.44549 8.97631 5.44942 10.9392 7.22734C11.089 7.36288 11.3154 7.3533 11.456 7.2077L12.2632 6.37312C12.4169 6.21451 12.4115 5.95424 12.2501 5.80471Z" fill="white"/>
</svg>
