<svg width="262" height="122" viewBox="0 0 262 122" fill="none" xmlns="http://www.w3.org/2000/svg">
<rect width="10" height="122" rx="5" fill="#F4F5F5"/>
<rect y="47" width="10" height="75" rx="5" fill="#363636"/>
<rect x="42" width="10" height="122" rx="5" fill="#F4F5F5"/>
<rect x="42" y="83" width="10" height="39" rx="5" fill="#363636"/>
<rect x="84" width="10" height="122" rx="5" fill="#F4F5F5"/>
<rect x="84" y="70" width="10" height="52" rx="5" fill="#363636"/>
<rect x="126" width="10" height="122" rx="5" fill="#F4F5F5"/>
<rect x="126" y="23" width="10" height="99" rx="5" fill="#363636"/>
<rect x="168" width="10" height="122" rx="5" fill="#F4F5F5"/>
<rect x="168" y="57" width="10" height="65" rx="5" fill="#363636"/>
<rect x="210" width="10" height="122" rx="5" fill="#F4F5F5"/>
<rect x="210" y="89" width="10" height="33" rx="5" fill="#363636"/>
<rect x="252" width="10" height="122" rx="5" fill="#F4F5F5"/>
<rect x="252" y="57" width="10" height="65" rx="5" fill="#363636"/>
</svg>
