<svg width="20" height="20" viewBox="0 0 20 20" fill="none" xmlns="http://www.w3.org/2000/svg">
<path fill-rule="evenodd" clip-rule="evenodd" d="M10 0C4.47715 0 0 4.47715 0 10C0 15.5228 4.47715 20 10 20C15.5228 20 20 15.5228 20 10C20 7.34784 18.9464 4.8043 17.0711 2.92893C15.1957 1.05357 12.6522 0 10 0ZM14.5457 8.08756L9.54571 13.0876C9.22068 13.4107 8.69574 13.4107 8.37071 13.0876L5.45405 10.1709C5.1709 9.84026 5.18994 9.3474 5.49774 9.03959C5.80555 8.73178 6.29841 8.71275 6.62905 8.99589L8.95821 11.3209L13.3707 6.91256C13.7013 6.62942 14.1942 6.64845 14.502 6.95626C14.8098 7.26407 14.8289 7.75693 14.5457 8.08756Z" fill="#4CA6A8"/>
</svg>
