<svg width="17" height="17" viewBox="0 0 17 17" fill="none" xmlns="http://www.w3.org/2000/svg">
<path fill-rule="evenodd" clip-rule="evenodd" d="M2.49013 2.49013C4.08392 0.895648 6.24563 0 8.49995 0C10.7543 0 12.9161 0.895648 14.5098 2.49013C16.1042 4.08392 16.9999 6.24563 16.9999 8.49995C16.9999 10.7543 16.1042 12.9161 14.5098 14.5098C12.916 16.1042 10.7543 16.9999 8.49995 16.9999C6.24563 16.9999 4.08382 16.1042 2.49013 14.5098C0.895648 12.916 0 10.7543 0 8.49995C0 6.24563 0.895648 4.08382 2.49013 2.49013ZM11.0499 10.1996C11.4307 10.2195 11.7782 9.98366 11.9001 9.6219L11.9001 9.6219C11.971 9.40197 11.9495 9.16292 11.8404 8.95892C11.7312 8.75573 11.5439 8.60512 11.3216 8.54217H11.3224L9.35021 7.88797V4.25038C9.35021 3.78103 8.96931 3.40014 8.49997 3.40014C8.03062 3.40014 7.64973 3.78103 7.64973 4.25038V8.49994C7.64893 8.86568 7.88161 9.1908 8.22823 9.30714L10.7781 10.1574C10.8666 10.1837 10.9574 10.1972 11.0499 10.1996Z" fill="#071232"/>
</svg>
