<svg width="33" height="33" viewBox="0 0 33 33" fill="none" xmlns="http://www.w3.org/2000/svg">
<path d="M32.3472 16.8793C32.3472 15.7578 32.2563 14.6301 32.0623 13.5267H16.4995V19.8803H25.4116C25.0417 21.9295 23.8535 23.7422 22.1135 24.8941V29.0167H27.4304C30.5527 26.143 32.3472 21.8992 32.3472 16.8793Z" fill="#4285F4"/>
<path d="M16.4994 33.0001C20.9494 33.0001 24.7022 31.539 27.4364 29.0169L22.1195 24.8943C20.6402 25.9007 18.7305 26.4706 16.5055 26.4706C12.201 26.4706 8.55132 23.5666 7.2418 19.6623H1.75512V23.9122C4.55605 29.4838 10.261 33.0001 16.4994 33.0001Z" fill="#34A853"/>
<path d="M7.23574 19.662C6.5446 17.6128 6.5446 15.3939 7.23574 13.3447V9.0948H1.75513C-0.585043 13.757 -0.585043 19.2497 1.75513 23.9119L7.23574 19.662Z" fill="#FBBC04"/>
<path d="M16.4994 6.53056C18.8517 6.49418 21.1252 7.37932 22.8288 9.00411L27.5395 4.29345C24.5567 1.49252 20.5978 -0.0473891 16.4994 0.00111188C10.261 0.00111188 4.55605 3.51743 1.75512 9.09505L7.23573 13.3449C8.5392 9.43455 12.195 6.53056 16.4994 6.53056Z" fill="#EA4335"/>
</svg>
