<svg width="101" height="101" viewBox="0 0 101 101" fill="none" xmlns="http://www.w3.org/2000/svg">
<circle cx="50.2488" cy="50.2488" r="50.2488" fill="#F8F8F8"/>
<circle cx="85.4229" cy="85.4229" r="15.0746" fill="#4CA6A8" stroke="#FEFEFE"/>
<path fill-rule="evenodd" clip-rule="evenodd" d="M88.5746 82.7592L83.8376 87.2061C83.6199 87.4103 83.2654 87.4103 83.0477 87.2061C82.8299 87.002 82.8299 86.6696 83.0477 86.4654L87.7847 82.0185C88.0024 81.8143 88.3569 81.8143 88.5746 82.0185C88.6835 82.1206 88.7393 82.2541 88.7393 82.3875C88.7393 82.5236 88.6835 82.6571 88.5746 82.7592ZM90.3527 82.2046L89.1663 81.0949C88.622 80.5845 87.7371 80.5845 87.1928 81.0949L82.1069 85.8716C81.9478 86.0181 81.8306 86.2014 81.7608 86.4029L80.7391 89.4548C80.6023 89.8578 81.0071 90.2374 81.437 90.1117L84.6973 89.1511C84.9095 89.0883 85.1049 88.9784 85.264 88.8292L90.3527 84.0525C90.897 83.5421 90.897 82.715 90.3527 82.2046Z" fill="white"/>
<path fill-rule="evenodd" clip-rule="evenodd" d="M58.9738 42.4374C58.9738 47.0014 55.2721 50.7056 50.7056 50.7056C46.1391 50.7056 42.4374 47.0014 42.4374 42.4374C42.4374 37.8733 46.1391 34.1692 50.7056 34.1692C55.2721 34.1692 58.9738 37.8733 58.9738 42.4374Z" fill="#B9B9B9"/>
<path fill-rule="evenodd" clip-rule="evenodd" d="M50.7056 52.3593C41.5712 52.3593 34.1692 57.6365 34.1692 64.1415C34.1692 65.853 35.9323 67.2421 38.1064 67.2421H63.3047C65.4789 67.2421 67.242 65.853 67.242 64.1415C67.242 57.6365 59.84 52.3593 50.7056 52.3593Z" fill="#B9B9B9"/>
</svg>
