<svg width="17" height="18" viewBox="0 0 17 18" fill="none" xmlns="http://www.w3.org/2000/svg">
<path d="M9.5625 1.125C9.5625 0.826631 9.45056 0.540483 9.2513 0.329505C9.05204 0.118526 8.78179 0 8.5 0C8.21821 0 7.94796 0.118526 7.7487 0.329505C7.54944 0.540483 7.4375 0.826631 7.4375 1.125V2.25C7.4375 2.54837 7.54944 2.83452 7.7487 3.0455C7.94796 3.25647 8.21821 3.375 8.5 3.375C8.78179 3.375 9.05204 3.25647 9.2513 3.0455C9.45056 2.83452 9.5625 2.54837 9.5625 2.25V1.125Z" fill="white"/>
<path d="M14.5106 4.22662C14.7041 4.01444 14.8112 3.73026 14.8088 3.43529C14.8064 3.14032 14.6946 2.85816 14.4976 2.64957C14.3006 2.44099 14.0341 2.32267 13.7555 2.32011C13.477 2.31755 13.2086 2.43094 13.0082 2.63587L12.257 3.43124C12.0635 3.64342 11.9564 3.9276 11.9588 4.22257C11.9612 4.51754 12.0729 4.79971 12.2699 5.00829C12.4669 5.21687 12.7334 5.33519 13.012 5.33775C13.2906 5.34032 13.559 5.22692 13.7594 5.02199L14.5106 4.22662Z" fill="white"/>
<path d="M17 9C17 9.29837 16.8881 9.58452 16.6888 9.79549C16.4895 10.0065 16.2193 10.125 15.9375 10.125H14.875C14.5932 10.125 14.323 10.0065 14.1237 9.79549C13.9244 9.58452 13.8125 9.29837 13.8125 9C13.8125 8.70163 13.9244 8.41548 14.1237 8.20451C14.323 7.99353 14.5932 7.875 14.875 7.875H15.9375C16.2193 7.875 16.4895 7.99353 16.6888 8.20451C16.8881 8.41548 17 8.70163 17 9Z" fill="white"/>
<path d="M3.24061 5.02199C3.33862 5.12944 3.45586 5.21515 3.58549 5.27411C3.71512 5.33307 3.85454 5.3641 3.99562 5.3654C4.1367 5.3667 4.2766 5.33823 4.40718 5.28167C4.53776 5.2251 4.65639 5.14157 4.75615 5.03594C4.85591 4.93031 4.93481 4.8047 4.98823 4.66644C5.04165 4.52818 5.06854 4.38004 5.06731 4.23067C5.06608 4.08129 5.03677 3.93367 4.98109 3.79641C4.9254 3.65916 4.84446 3.53502 4.74298 3.43124L3.99179 2.63587C3.7914 2.43094 3.52301 2.31755 3.24443 2.32011C2.96585 2.32267 2.69936 2.44099 2.50236 2.64957C2.30536 2.85816 2.19362 3.14032 2.1912 3.43529C2.18878 3.73026 2.29588 4.01444 2.48942 4.22662L3.24061 5.02199Z" fill="white"/>
<path d="M3.1875 9C3.1875 9.29837 3.07556 9.58452 2.8763 9.79549C2.67704 10.0065 2.40679 10.125 2.125 10.125H1.0625C0.780707 10.125 0.510456 10.0065 0.311199 9.79549C0.111942 9.58452 0 9.29837 0 9C0 8.70163 0.111942 8.41548 0.311199 8.20451C0.510456 7.99353 0.780707 7.875 1.0625 7.875H2.125C2.40679 7.875 2.67704 7.99353 2.8763 8.20451C3.07556 8.41548 3.1875 8.70163 3.1875 9Z" fill="white"/>
<path d="M6.375 15.75V14.625H10.625V15.75C10.625 16.3467 10.4011 16.919 10.0026 17.341C9.60409 17.7629 9.06359 18 8.5 18C7.93641 18 7.39591 17.7629 6.9974 17.341C6.59888 16.919 6.375 16.3467 6.375 15.75Z" fill="white"/>
<path d="M10.625 13.5C10.6409 13.1175 10.846 12.7732 11.1318 12.5336C11.8253 11.9545 12.3312 11.1611 12.5791 10.2635C12.827 9.36601 12.8047 8.40898 12.5153 7.52549C12.2258 6.64199 11.6836 5.87592 10.964 5.33375C10.2444 4.79158 9.38319 4.50024 8.5 4.50024C7.61681 4.50024 6.75556 4.79158 6.03596 5.33375C5.31636 5.87592 4.77416 6.64199 4.48471 7.52549C4.19527 8.40898 4.17297 9.36601 4.42091 10.2635C4.66885 11.1611 5.17471 11.9545 5.86819 12.5336C6.15506 12.7732 6.35906 13.1175 6.37394 13.5H10.6261H10.625Z" fill="white"/>
</svg>
