<svg width="80" height="80" viewBox="0 0 80 80" fill="none" xmlns="http://www.w3.org/2000/svg">
<path d="M44.0811 13.6998L47.1668 10.6607C53.2263 4.69271 63.0914 4.545 69.1859 10.4786C71.4951 12.732 73.0298 15.6412 73.5742 18.7976C74.1186 21.954 73.6452 25.1991 72.2208 28.077C71.5375 29.4518 71.3074 31.0024 71.5621 32.5122C71.8173 34.0221 72.5446 35.4158 73.6428 36.4987C75.6624 34.5051 77.263 32.1392 78.3538 29.5361C79.4445 26.9329 80.004 24.1436 80 21.3275C79.9956 18.5115 79.4286 15.7238 78.3304 13.1237C77.2321 10.5236 75.6243 8.16214 73.5992 6.17416C65.0772 -2.17174 51.2444 -2.00566 42.7463 6.36369L13.3341 35.3307L10.9162 32.9493C4.75383 26.8801 4.71455 16.9593 10.9856 10.998C13.3068 8.79814 16.2642 7.36209 19.4494 6.88808C22.6346 6.41406 25.8907 6.92544 28.7683 8.35159C30.0817 9.01447 31.5742 9.2516 33.0326 9.02913C34.4911 8.80665 35.8408 8.13596 36.8891 7.11282L36.9641 7.03935C36.9874 7.01653 37.0059 6.98937 37.0186 6.95943C37.0312 6.92954 37.0377 6.89746 37.0377 6.86506C37.0377 6.83267 37.0312 6.80058 37.0186 6.77069C37.0059 6.74079 36.9874 6.71363 36.9641 6.69077C32.9159 2.80392 27.4911 0.620689 21.8376 0.603037C16.1841 0.58539 10.7453 2.73471 6.67224 6.5962C-2.10167 14.9382 -2.07032 28.8101 6.55321 37.3034L35.9567 66.2626L32.8333 69.3388C26.7737 75.3068 16.9083 75.4545 10.8142 69.5209C8.50491 67.2677 6.9703 64.3583 6.42588 61.202C5.8815 58.0456 6.35462 54.8006 7.77885 51.9225C8.46213 50.5477 8.69242 48.9971 8.43757 47.4875C8.18268 45.9775 7.45535 44.5836 6.3572 43.5008C4.33773 45.4945 2.73688 47.8603 1.6461 50.4633C0.555308 53.0667 -0.00403126 55.8557 2.18706e-05 58.672C0.00407501 61.488 0.571441 64.2758 1.66972 66.8757C2.768 69.476 4.37566 71.8374 6.40084 73.8253C14.9224 82.1716 28.7556 82.006 37.2537 73.6362L66.704 44.6305L69.1311 47.0209C75.1907 52.9889 75.3406 62.7049 69.316 68.7069C67.0282 70.9816 64.0742 72.4928 60.8694 73.0293C57.6647 73.5655 54.3699 73.0993 51.4476 71.6964C50.0513 71.0231 48.4761 70.796 46.9426 71.0477C45.4091 71.2989 43.9934 72.016 42.8939 73.0985C44.9183 75.0876 47.3203 76.6644 49.9633 77.7386C52.6066 78.8129 55.4384 79.3639 58.2979 79.36C61.1571 79.3557 63.9877 78.7969 66.6274 77.7152C69.2676 76.6335 71.6653 75.05 73.6837 73.0555C82.1581 64.6627 81.9894 51.0385 73.4917 42.6692L44.0811 13.6998ZM40.3474 61.9362L17.726 39.6567L39.6887 18.0262L62.3101 40.3057L40.3474 61.9362Z" fill="#363636"/>
</svg>
