<svg width="14" height="14" viewBox="0 0 14 14" fill="none" xmlns="http://www.w3.org/2000/svg">
<path d="M5.8 0.22861C6.00955 0.0798904 6.26015 0 6.51711 0C6.77406 0 7.02467 0.0798904 7.23421 0.22861L12.6736 4.08787C13.3494 4.56749 13.011 5.63269 12.1828 5.63455H0.854162C0.0231935 5.63455 -0.317001 4.56842 0.361529 4.08787L5.8 0.22861ZM6.51757 3.65937C6.72304 3.65937 6.9201 3.57775 7.06539 3.43246C7.21068 3.28717 7.2923 3.09011 7.2923 2.88464C7.2923 2.67917 7.21068 2.48211 7.06539 2.33682C6.9201 2.19153 6.72304 2.10991 6.51757 2.10991C6.3121 2.10991 6.11504 2.19153 5.96975 2.33682C5.82446 2.48211 5.74284 2.67917 5.74284 2.88464C5.74284 3.09011 5.82446 3.28717 5.96975 3.43246C6.11504 3.57775 6.3121 3.65937 6.51757 3.65937Z" fill="#260EFE"/>
<path d="M1.40527 6.56396V10.2819H3.26426V6.56396H1.40527Z" fill="#260EFE"/>
<path d="M0.0112305 13.2256C0.0112305 12.113 0.91284 11.2114 2.02452 11.2114H11.0099C12.1225 11.2114 13.0242 12.113 13.0242 13.2256V13.5352C13.0242 13.6584 12.9752 13.7766 12.888 13.8638C12.8009 13.9509 12.6827 13.9999 12.5594 13.9999H0.475978C0.352719 13.9999 0.234509 13.9509 0.147352 13.8638C0.0601949 13.7766 0.0112305 13.6584 0.0112305 13.5352V13.2256Z" fill="#260EFE"/>
<path d="M11.6297 6.56396V10.2819H9.77075V6.56396H11.6297Z" fill="#260EFE"/>
<path d="M8.84141 6.56396V10.2819H6.98242V6.56396H8.84141Z" fill="#260EFE"/>
<path d="M6.05284 6.56396V10.2819H4.19385V6.56396H6.05284Z" fill="#260EFE"/>
</svg>
