<svg width="9" height="8" viewBox="0 0 9 8" fill="none" xmlns="http://www.w3.org/2000/svg">
<path d="M5.34825 7.70463C5.39175 7.65943 5.57775 7.48875 5.73075 7.32976C6.693 6.39766 8.268 3.9661 8.74875 2.69342C8.826 2.50015 8.9895 2.0115 9 1.75041C9 1.50024 8.946 1.26176 8.8365 1.03419C8.6835 0.750512 8.44275 0.522942 8.1585 0.398247C7.96125 0.317974 7.371 0.193278 7.3605 0.193278C6.71475 0.068583 5.6655 -3.97635e-08 4.506 -5.35904e-08C3.40125 -6.67644e-08 2.39475 0.0685825 1.73925 0.170677C1.72875 0.182367 0.99525 0.307063 0.744 0.443448C0.285 0.693619 8.13006e-08 1.18227 7.50646e-08 1.70521L7.45256e-08 1.75041C0.0112496 2.09099 0.29625 2.80721 0.30675 2.80721C0.78825 4.0113 2.286 6.38675 3.28125 7.34145C3.28125 7.34145 3.537 7.61033 3.69675 7.72723C3.92625 7.9096 4.2105 8 4.49475 8C4.812 8 5.1075 7.89791 5.34825 7.70463Z" fill="#4B5060"/>
</svg>
