<svg width="40" height="40" viewBox="0 0 40 40" fill="none" xmlns="http://www.w3.org/2000/svg">
<path fill-rule="evenodd" clip-rule="evenodd" d="M19.9999 0C20.5893 0 21.1545 0.234126 21.5713 0.650872C21.988 1.06762 22.2221 1.63285 22.2221 2.22221V19.9999C22.2221 20.5893 21.988 21.1545 21.5713 21.5713C21.1545 21.988 20.5893 22.2221 19.9999 22.2221H2.22221C1.63285 22.2221 1.06762 21.988 0.650872 21.5713C0.234126 21.1545 0 20.5893 0 19.9999C0 19.4106 0.234126 18.8453 0.650872 18.4286C1.06762 18.0118 1.63285 17.7777 2.22221 17.7777H17.7777V2.22221C17.7777 1.63285 18.0118 1.06762 18.4286 0.650872C18.8453 0.234126 19.4106 0 19.9999 0Z" fill="#071232"/>
<path fill-rule="evenodd" clip-rule="evenodd" d="M17.7775 20.0001C17.7775 19.4107 18.0116 18.8455 18.4284 18.4287C18.8451 18.012 19.4104 17.7779 19.9997 17.7779H37.7774C38.3668 17.7779 38.932 18.012 39.3488 18.4287C39.7655 18.8455 39.9996 19.4107 39.9996 20.0001C39.9996 20.5894 39.7655 21.1547 39.3488 21.5714C38.932 21.9882 38.3668 22.2223 37.7774 22.2223H22.2219V37.7778C22.2219 38.3672 21.9878 38.9324 21.5711 39.3491C21.1543 39.7659 20.5891 40 19.9997 40C19.4104 40 18.8451 39.7659 18.4284 39.3491C18.0116 38.9324 17.7775 38.3672 17.7775 37.7778V20.0001Z" fill="#071232"/>
</svg>
