<svg width="28" height="28" viewBox="0 0 28 28" fill="none" xmlns="http://www.w3.org/2000/svg">
<path d="M8.59744 12.6805C8.66336 12.6128 8.91226 12.3235 9.14412 12.0855C10.5034 10.5887 14.0495 8.13867 15.9054 7.39083C16.1873 7.27067 16.8999 7.01633 17.2807 7C17.6455 7 17.9933 7.084 18.3252 7.25433C18.7389 7.49233 19.0707 7.86683 19.2526 8.309C19.3696 8.61583 19.5515 9.534 19.5515 9.55033C19.7333 10.5548 19.8334 12.187 19.8334 13.9907C19.8334 15.7092 19.7333 17.2748 19.5844 18.2945C19.5674 18.3108 19.3856 19.4518 19.1867 19.8427C18.8218 20.5567 18.1092 21 17.3466 21H17.2807C16.784 20.9825 15.7395 20.5392 15.7395 20.5228C13.9835 19.7738 10.5193 17.444 9.12707 15.8958C9.12707 15.8958 8.73496 15.498 8.56448 15.2495C8.29853 14.8925 8.16669 14.4503 8.16669 14.0082C8.16669 13.5147 8.31557 13.055 8.59744 12.6805Z" fill="white"/>
</svg>
