<svg width="18" height="18" viewBox="0 0 18 18" fill="none" xmlns="http://www.w3.org/2000/svg">
<path fill-rule="evenodd" clip-rule="evenodd" d="M9.00496 9.87373L9.27053 9.87258C10.3239 9.86346 11.2637 9.79996 11.8593 9.69045C11.87 9.69045 12.4607 9.571 12.6573 9.49491C12.9415 9.37546 13.1828 9.15946 13.3356 8.88865C13.4446 8.67183 13.5 8.44438 13.5 8.20629C13.4913 8.01913 13.3971 7.71048 13.3182 7.49019L13.248 7.30712C12.7664 6.09459 11.1926 3.77671 10.2301 2.88899L10.1629 2.82355L9.84762 2.53145C9.60639 2.34736 9.31146 2.25 8.99422 2.25C8.71002 2.25 8.42583 2.33673 8.19616 2.51018C8.12176 2.56211 8.0263 2.64575 7.94564 2.7202L7.64804 3.0045C6.65679 3.98284 5.26637 6.10114 4.80567 7.19912C4.79576 7.19912 4.51074 7.88148 4.5 8.20629V8.24965C4.5 8.74792 4.78419 9.21346 5.24353 9.45155C5.3691 9.51659 5.61509 9.57898 5.83112 9.62643L6.23903 9.71173C6.89499 9.80909 7.90123 9.87373 9.00496 9.87373ZM7.86124 14.6226C7.86124 15.2452 8.37097 15.75 8.99967 15.75C9.62836 15.75 10.1381 15.2452 10.1381 14.6226L9.89273 11.8481C9.89273 11.3597 9.4937 10.9637 8.99967 10.9637C8.50646 10.9637 8.10661 11.3597 8.10661 11.8481L7.86124 14.6226Z" fill="#F76F47"/>
</svg>
